<svg width="166" height="60" viewBox="0 0 166 60" fill="none" xmlns="http://www.w3.org/2000/svg">
<rect x="0.5" y="0.5" width="165" height="59" rx="9.5" stroke="#141637"/>
<path d="M44.7824 28.951C44.7548 25.6574 47.4793 24.0566 47.599 23.983C46.0526 21.7382 43.6595 21.4254 42.8219 21.3978C40.8153 21.1862 38.8639 22.603 37.8422 22.603C36.8021 22.603 35.219 21.4254 33.5253 21.453C31.3439 21.4898 29.2913 22.7502 28.1775 24.719C25.8672 28.721 27.5884 34.609 29.8067 37.8474C30.9205 39.4298 32.2091 41.2054 33.9119 41.141C35.5687 41.0766 36.1946 40.083 38.192 40.083C40.1802 40.083 40.7601 41.141 42.4905 41.1042C44.2762 41.0766 45.3899 39.5126 46.4668 37.9118C47.7463 36.0994 48.2617 34.3054 48.2801 34.2134C48.2341 34.195 44.8192 32.8886 44.7824 28.951Z" fill="black"/>
<path d="M41.5148 19.2727C42.4076 18.1595 43.0151 16.6415 42.8495 15.0959C41.5608 15.1511 39.9408 15.9883 39.0112 17.0831C38.192 18.0491 37.4556 19.6223 37.6397 21.1035C39.094 21.2139 40.5852 20.3675 41.5148 19.2727Z" fill="black"/>
<path d="M68.8252 40.9114H66.5057L65.2355 36.9186H60.8173L59.6115 40.9114H57.3564L61.7286 27.323H64.4347L68.8252 40.9114ZM64.8581 35.2442L63.7075 31.7022C63.5879 31.3342 63.3578 30.4878 63.0264 29.1446H62.9804C62.8423 29.7242 62.6306 30.5798 62.3361 31.7022L61.2039 35.2442H64.8581Z" fill="black"/>
<path d="M80.0639 35.8973C80.0639 37.5625 79.6129 38.8781 78.7016 39.8441C77.8917 40.7089 76.8792 41.1321 75.6826 41.1321C74.3847 41.1321 73.4551 40.6721 72.8844 39.7429V44.8857H70.703V34.3333C70.703 33.2845 70.6753 32.2173 70.6201 31.1133H72.5346L72.6543 32.6681H72.6911C73.4183 31.4997 74.5228 30.9109 75.9955 30.9109C77.1553 30.9109 78.1126 31.3709 78.8857 32.2817C79.6773 33.2017 80.0639 34.3977 80.0639 35.8973ZM77.8456 35.9709C77.8456 35.0141 77.6339 34.2321 77.2013 33.6157C76.7319 32.9717 76.0968 32.6497 75.3052 32.6497C74.7713 32.6497 74.2835 32.8337 73.8417 33.1833C73.4091 33.5421 73.1145 34.0021 72.9857 34.5817C72.9212 34.8485 72.8844 35.0693 72.8844 35.2441V36.8817C72.8844 37.5901 73.1053 38.1973 73.5379 38.6849C73.9705 39.1725 74.5412 39.4209 75.2408 39.4209C76.06 39.4209 76.6951 39.0989 77.1553 38.4733C77.6155 37.8385 77.8456 37.0105 77.8456 35.9709Z" fill="black"/>
<path d="M91.3305 35.8973C91.3305 37.5625 90.8795 38.8781 89.9682 39.8441C89.1582 40.7089 88.1458 41.1321 86.9492 41.1321C85.6513 41.1321 84.7217 40.6721 84.151 39.7429V44.8857H81.9696V34.3333C81.9696 33.2845 81.9419 32.2173 81.8867 31.1133H83.8012L83.9209 32.6681H83.9577C84.6849 31.4997 85.7894 30.9109 87.2621 30.9109C88.4219 30.9109 89.3792 31.3709 90.1523 32.2817C90.9439 33.2017 91.3305 34.3977 91.3305 35.8973ZM89.1122 35.9709C89.1122 35.0141 88.9005 34.2321 88.4679 33.6157C87.9985 32.9717 87.3634 32.6497 86.5718 32.6497C86.0379 32.6497 85.5501 32.8337 85.1083 33.1833C84.6757 33.5421 84.3903 34.0021 84.2523 34.5817C84.1878 34.8485 84.151 35.0693 84.151 35.2441V36.8817C84.151 37.5901 84.3719 38.1973 84.8045 38.6849C85.2371 39.1725 85.8078 39.4209 86.5074 39.4209C87.3266 39.4209 87.9709 39.0989 88.4219 38.4733C88.8913 37.8385 89.1122 37.0105 89.1122 35.9709Z" fill="black"/>
<path d="M103.941 37.1024C103.941 38.2616 103.536 39.2 102.735 39.9268C101.851 40.718 100.618 41.1136 99.0347 41.1136C97.5712 41.1136 96.4022 40.8284 95.5186 40.2672L96.0248 38.4548C96.9821 39.016 98.0314 39.3012 99.1727 39.3012C99.9919 39.3012 100.636 39.1172 101.087 38.7492C101.548 38.3812 101.778 37.8844 101.778 37.268C101.778 36.716 101.584 36.256 101.216 35.8788C100.839 35.5016 100.213 35.152 99.3384 34.83C96.936 33.9376 95.7487 32.6404 95.7487 30.9384C95.7487 29.8252 96.1721 28.9144 97.0097 28.1968C97.8473 27.4884 98.961 27.1296 100.351 27.1296C101.584 27.1296 102.615 27.3412 103.434 27.7736L102.882 29.54C102.109 29.126 101.244 28.9144 100.268 28.9144C99.5041 28.9144 98.8966 29.1076 98.464 29.4756C98.105 29.816 97.9209 30.2208 97.9209 30.7084C97.9209 31.242 98.1326 31.6928 98.5468 32.0332C98.9058 32.3552 99.5685 32.7048 100.526 33.082C101.695 33.5512 102.551 34.1032 103.103 34.738C103.665 35.3728 103.941 36.164 103.941 37.1024Z" fill="black"/>
<path d="M111.157 32.7507H108.755V37.5071C108.755 38.7123 109.178 39.3195 110.025 39.3195C110.411 39.3195 110.733 39.2827 110.991 39.2183L111.056 40.8743C110.623 41.0307 110.062 41.1135 109.362 41.1135C108.497 41.1135 107.834 40.8467 107.346 40.3223C106.858 39.7979 106.619 38.9147 106.619 37.6819V32.7415H105.192V31.1131H106.619V29.3191L108.755 28.675V31.1131H111.157V32.7507Z" fill="black"/>
<path d="M121.963 35.9339C121.963 37.4427 121.53 38.6755 120.674 39.6415C119.772 40.6351 118.576 41.1319 117.084 41.1319C115.648 41.1319 114.498 40.6535 113.642 39.7059C112.786 38.7583 112.362 37.5531 112.362 36.0995C112.362 34.5815 112.804 33.3395 113.679 32.3735C114.562 31.4075 115.75 30.9199 117.241 30.9199C118.677 30.9199 119.837 31.3983 120.711 32.3551C121.549 33.2751 121.963 34.4711 121.963 35.9339ZM119.708 35.9799C119.708 35.0783 119.514 34.3147 119.128 33.6707C118.668 32.8887 118.014 32.5023 117.167 32.5023C116.293 32.5023 115.621 32.8887 115.17 33.6707C114.774 34.3147 114.59 35.0967 114.59 36.0259C114.59 36.9275 114.783 37.7003 115.17 38.3351C115.639 39.1171 116.302 39.5035 117.149 39.5035C117.977 39.5035 118.631 39.1079 119.109 38.3167C119.505 37.6543 119.708 36.8815 119.708 35.9799Z" fill="black"/>
<path d="M129.05 33.0269C128.838 32.9901 128.608 32.9717 128.359 32.9717C127.595 32.9717 126.997 33.2569 126.583 33.8365C126.224 34.3425 126.04 34.9957 126.04 35.7685V40.9113H123.858V34.1953C123.858 33.0637 123.84 32.0333 123.794 31.1133H125.69L125.773 32.9901H125.837C126.067 32.3461 126.426 31.8217 126.924 31.4353C127.411 31.0857 127.936 30.9109 128.498 30.9109C128.7 30.9109 128.884 30.9293 129.041 30.9477L129.05 33.0269Z" fill="black"/>
<path d="M138.789 35.5477C138.789 35.9341 138.761 36.2653 138.706 36.5321H132.171C132.198 37.4981 132.511 38.2433 133.119 38.7493C133.671 39.2001 134.38 39.4301 135.254 39.4301C136.221 39.4301 137.104 39.2737 137.896 38.9701L138.237 40.4789C137.307 40.8837 136.212 41.0861 134.951 41.0861C133.432 41.0861 132.235 40.6353 131.37 39.7429C130.505 38.8505 130.072 37.6453 130.072 36.1457C130.072 34.6737 130.477 33.4409 131.287 32.4565C132.134 31.4077 133.275 30.8833 134.711 30.8833C136.12 30.8833 137.196 31.4077 137.914 32.4565C138.494 33.3029 138.789 34.3241 138.789 35.5477ZM136.709 34.9865C136.727 34.3425 136.58 33.7813 136.285 33.3121C135.908 32.7049 135.328 32.4013 134.555 32.4013C133.846 32.4013 133.266 32.6957 132.824 33.2845C132.465 33.7537 132.245 34.3241 132.18 34.9773L136.709 34.9865Z" fill="black"/>
<path d="M63.8083 22.4654H62.667L62.0411 20.5058H59.8688L59.2705 22.4654H58.166L60.3106 15.7862H61.6361L63.8083 22.4654ZM61.8478 19.6778L61.2863 17.9298C61.2311 17.755 61.1206 17.3318 60.9458 16.6694H60.9273C60.8537 16.9546 60.7617 17.3686 60.6052 17.9298L60.0529 19.6778H61.8478Z" fill="black"/>
<path d="M69.1836 17.6445L67.3611 22.4653H66.321L64.5537 17.6445H65.7043L66.5235 20.1929C66.6615 20.6161 66.7812 21.0209 66.8732 21.4073H66.9009C66.9837 21.0577 67.1034 20.6529 67.2506 20.1929L68.0606 17.6445H69.1836Z" fill="black"/>
<path d="M73.0676 22.4654L72.9848 21.9134H72.9572C72.6258 22.355 72.1564 22.5758 71.5489 22.5758C70.6837 22.5758 70.0762 21.9686 70.0762 21.159C70.0762 19.9722 71.1071 19.3558 72.8927 19.3558V19.2638C72.8927 18.629 72.5522 18.3162 71.8894 18.3162C71.4108 18.3162 70.9966 18.4358 70.6284 18.675L70.4075 17.9758C70.8493 17.6998 71.4108 17.5618 72.0643 17.5618C73.3253 17.5618 73.9604 18.2242 73.9604 19.5582V21.3338C73.9604 21.8214 73.9789 22.1986 74.0341 22.4838L73.0676 22.4654ZM72.9203 20.0642C71.733 20.0642 71.1347 20.3494 71.1347 21.0394C71.1347 21.5454 71.4384 21.7938 71.871 21.7938C72.4141 21.7938 72.9203 21.3798 72.9203 20.8094V20.0642Z" fill="black"/>
<path d="M76.3451 16.8535C75.9861 16.8535 75.71 16.5775 75.71 16.2095C75.71 15.8415 75.9953 15.5747 76.3635 15.5747C76.7317 15.5747 77.0262 15.8415 77.017 16.2095C77.017 16.5959 76.7409 16.8535 76.3451 16.8535ZM75.8296 17.6447H76.8973V22.4563H75.8296V17.6447Z" fill="black"/>
<path d="M78.8027 15.4365H79.8705V22.4561H78.8027V15.4365Z" fill="black"/>
<path d="M84.4171 22.4653L84.3343 21.9133H84.3067C83.9753 22.3549 83.5059 22.5757 82.8984 22.5757C82.0332 22.5757 81.4257 21.9685 81.4257 21.1589C81.4257 19.9721 82.4566 19.3557 84.2422 19.3557V19.2637C84.2422 18.6289 83.9017 18.3161 83.2389 18.3161C82.7603 18.3161 82.3461 18.4357 81.9779 18.6749L81.757 17.9665C82.1988 17.6905 82.7603 17.5525 83.4138 17.5525C84.6748 17.5525 85.31 18.2149 85.31 19.5489V21.3245C85.31 21.8121 85.3284 22.1893 85.3744 22.4745H84.4171V22.4653ZM84.2698 20.0641C83.0825 20.0641 82.4842 20.3493 82.4842 21.0393C82.4842 21.5453 82.7879 21.7937 83.2205 21.7937C83.7636 21.7937 84.2698 21.3797 84.2698 20.8093V20.0641Z" fill="black"/>
<path d="M89.6544 22.5757C88.9733 22.5757 88.467 22.2905 88.1357 21.7201H88.1173L88.0528 22.4653H87.1416C87.1692 22.0789 87.1784 21.6465 87.1784 21.1681V15.4365H88.2553V18.3529H88.2737C88.5959 17.8193 89.1021 17.5525 89.8109 17.5525C90.9706 17.5525 91.7806 18.5461 91.7806 19.9905C91.7806 21.4809 90.8786 22.5757 89.6544 22.5757ZM89.4335 18.3897C88.8168 18.3897 88.2553 18.9233 88.2553 19.6685V20.5149C88.2553 21.1773 88.7616 21.7201 89.4151 21.7201C90.2159 21.7201 90.6945 21.0669 90.6945 20.0273C90.6945 19.0521 90.1975 18.3897 89.4335 18.3897Z" fill="black"/>
<path d="M93.3643 15.4365H94.4319V22.4561H93.3643V15.4365Z" fill="black"/>
<path d="M100.258 20.3126H97.0456C97.064 21.2234 97.6715 21.7386 98.5643 21.7386C99.0429 21.7386 99.4755 21.6558 99.8621 21.5086L100.028 22.2538C99.5768 22.4562 99.0429 22.5482 98.417 22.5482C96.9075 22.5482 96.0146 21.6006 96.0146 20.1194C96.0146 18.6474 96.9259 17.5342 98.2974 17.5342C99.5216 17.5342 100.304 18.445 100.304 19.825C100.304 20.0182 100.295 20.1838 100.258 20.3126ZM99.2823 19.549C99.2823 18.8038 98.9049 18.2794 98.2237 18.2794C97.607 18.2794 97.1284 18.813 97.0548 19.549H99.2823Z" fill="black"/>
<path d="M106.747 22.5757C105.339 22.5757 104.428 21.5269 104.428 20.1009C104.428 18.6105 105.357 17.5525 106.83 17.5525C108.22 17.5525 109.15 18.5553 109.15 20.0181C109.15 21.5177 108.192 22.5757 106.747 22.5757ZM106.793 18.3345C106.02 18.3345 105.523 19.0613 105.523 20.0641C105.523 21.0577 106.029 21.7753 106.784 21.7753C107.539 21.7753 108.045 21.0025 108.045 20.0365C108.036 19.0613 107.548 18.3345 106.793 18.3345Z" fill="black"/>
<path d="M114.902 22.4655H113.834V19.6963C113.834 18.8407 113.503 18.4175 112.859 18.4175C112.224 18.4175 111.791 18.9603 111.791 19.5951V22.4563H110.723V19.0247C110.723 18.6015 110.714 18.1415 110.687 17.6447H111.625L111.671 18.3899H111.699C111.984 17.8747 112.573 17.5435 113.227 17.5435C114.239 17.5435 114.902 18.3163 114.902 19.5767V22.4655Z" fill="black"/>
<path d="M121.907 18.4541H120.729V20.7909C120.729 21.3889 120.94 21.6833 121.355 21.6833C121.539 21.6833 121.704 21.6649 121.833 21.6373L121.861 22.4469C121.649 22.5297 121.373 22.5665 121.033 22.5665C120.186 22.5665 119.689 22.0973 119.689 20.8829V18.4541H118.989V17.6537H119.689V16.7705L120.738 16.4485V17.6445H121.916V18.4541" fill="black"/>
<path d="M127.577 22.4653H126.51V19.7145C126.51 18.8497 126.178 18.4173 125.534 18.4173C124.982 18.4173 124.466 18.7945 124.466 19.5581V22.4561H123.398V15.4365H124.466V18.3253H124.485C124.825 17.8009 125.304 17.5433 125.93 17.5433C126.951 17.5433 127.577 18.3345 127.577 19.5949V22.4653Z" fill="black"/>
<path d="M133.044 20.3126H129.832C129.85 21.2234 130.458 21.7386 131.35 21.7386C131.829 21.7386 132.262 21.6558 132.648 21.5086L132.814 22.2538C132.363 22.4562 131.829 22.5482 131.203 22.5482C129.694 22.5482 128.801 21.6006 128.801 20.1194C128.801 18.6474 129.712 17.5342 131.084 17.5342C132.308 17.5342 133.09 18.445 133.09 19.825C133.09 20.0182 133.081 20.1838 133.044 20.3126ZM132.068 19.549C132.068 18.8038 131.691 18.2794 131.01 18.2794C130.393 18.2794 129.905 18.813 129.841 19.549H132.068Z" fill="black"/>
</svg>
