<svg width="166" height="60" viewBox="0 0 166 60" fill="none" xmlns="http://www.w3.org/2000/svg">
<rect x="0.5" y="0.5" width="165" height="59" rx="9.5" stroke="#141637"/>
<path d="M32.3661 29.5999C32.3661 29.5999 23.1246 24.5149 22.5805 24.2179C22.0363 23.9209 21.4922 24.1009 21.4922 24.7219V46.6369C21.4922 47.1049 21.8822 47.3029 22.3538 47.0509C22.8253 46.7899 32.3661 41.5429 32.3661 41.5429C32.3661 41.5429 33.6629 40.8319 34.3069 40.4719C35.3498 39.8959 37.4357 38.7529 37.4357 38.7529C37.4357 38.7529 41.7435 36.3859 42.3149 36.0709C42.8862 35.7559 42.8318 35.3239 42.3512 35.0809C41.8705 34.8379 37.4448 32.3809 37.4448 32.3809L32.3661 29.5999Z" fill="url(#paint0_linear_243_8547)"/>
<path d="M34.0729 35.5389L21.9203 24.1089C21.6391 24.1719 21.4668 24.3879 21.4668 24.7389V46.6089C21.4668 46.9059 21.5847 47.0859 21.7389 47.1489L34.0729 35.5389Z" fill="url(#paint1_linear_243_8547)"/>
<mask id="mask0_243_8547" style="mask-type:alpha" maskUnits="userSpaceOnUse" x="21" y="24" width="14" height="24">
<path d="M34.0729 35.5389L21.9203 24.1089C21.6391 24.1719 21.4668 24.3879 21.4668 24.7389V46.6089C21.4668 46.9059 21.5847 47.0859 21.7389 47.1489L34.0729 35.5389Z" fill="white"/>
</mask>
<g mask="url(#mask0_243_8547)">
</g>
<mask id="mask1_243_8547" style="mask-type:alpha" maskUnits="userSpaceOnUse" x="21" y="35" width="17" height="13">
<path d="M22.2361 47.0872L29.2647 43.2532C30.9969 42.2992 32.3663 41.5432 32.3663 41.5432L37.4722 38.8162L34.0713 35.5402L21.7373 47.1502C21.8733 47.1952 22.1182 47.1682 22.3087 47.0782" fill="white"/>
</mask>
<g mask="url(#mask1_243_8547)">
<path d="M32.3478 29.6001C32.3297 29.6451 23.0882 24.5511 22.5531 24.2901C22.009 23.9481 21.4648 24.1371 21.4648 24.7401V46.7001C21.4648 47.1861 21.8548 47.3841 22.2811 47.1501C22.798 46.8621 32.3297 41.6151 32.3478 41.5701L37.4265 38.7801C37.3993 38.8161 41.6981 36.4491 42.2331 36.1701C42.8498 35.8191 42.7863 35.3871 42.3238 35.1801C41.825 34.8921 37.3993 32.4351 37.4265 32.3901L32.3478 29.6001Z" fill="url(#paint2_linear_243_8547)"/>
</g>
<path d="M22.5622 24.209C22.3264 24.092 22.0996 24.056 21.9092 24.101L34.0709 35.549L37.4355 32.39L32.3659 29.6C32.3659 29.6 27.5865 26.972 24.7025 25.388L22.5622 24.209Z" fill="url(#paint3_linear_243_8547)"/>
<mask id="mask2_243_8547" style="mask-type:alpha" maskUnits="userSpaceOnUse" x="21" y="24" width="17" height="12">
<path d="M22.5622 24.209C22.3264 24.092 22.0996 24.056 21.9092 24.101L34.0709 35.549L37.4355 32.39L32.3659 29.6C32.3659 29.6 27.5865 26.972 24.7025 25.388L22.5622 24.209Z" fill="white"/>
</mask>
<g mask="url(#mask2_243_8547)">
</g>
<path d="M107.769 39.401L106.762 40.346C106.526 40.472 106.299 40.625 106.073 40.724C105.374 41.039 104.667 41.12 104.032 41.12C103.361 41.12 102.309 41.075 101.239 40.301C99.7516 39.257 99.0986 37.448 99.0986 35.882C99.0986 32.633 101.747 31.04 103.914 31.04C104.667 31.04 105.447 31.229 106.073 31.625C107.125 32.318 107.397 33.218 107.542 33.704L102.608 35.693L100.994 35.819C101.52 38.483 103.325 40.031 105.32 40.031C106.318 40.031 107.052 39.707 107.732 39.374C107.732 39.374 107.868 39.302 107.769 39.401ZM104.758 34.055C105.157 33.911 105.356 33.785 105.356 33.488C105.356 32.642 104.422 31.67 103.298 31.67C102.472 31.67 100.912 32.327 100.912 34.604C100.912 34.964 100.958 35.342 100.976 35.72L104.758 34.055Z" fill="black"/>
<path d="M97.4655 39.2841C97.4655 40.0941 97.6107 40.2201 98.2999 40.2831C98.6627 40.3281 99.0164 40.3461 99.3701 40.3821L98.5992 40.8411H94.908C95.3887 40.2111 95.4794 40.1481 95.4794 39.7341V39.2661L95.4703 26.8461H93.8379L95.4069 26.0901H98.3997C97.7467 26.4681 97.5562 26.6931 97.4746 27.4221L97.4655 39.2841Z" fill="black"/>
<path d="M91.7438 32.0661C92.2245 32.4621 93.2221 33.2991 93.2221 34.8831C93.2221 36.4311 92.3514 37.1601 91.4717 37.8531C91.1996 38.1231 90.8822 38.4201 90.8822 38.8791C90.8822 39.3381 91.1996 39.5901 91.4264 39.7791L92.1791 40.3641C93.0951 41.1381 93.9294 41.8491 93.9294 43.2891C93.9294 45.2511 92.0249 47.2401 88.4336 47.2401C85.4045 47.2401 83.9443 45.8001 83.9443 44.2521C83.9443 43.4961 84.3162 42.4341 85.5586 41.7051C86.8555 40.9131 88.6059 40.8051 89.5491 40.7421C89.2588 40.3641 88.9233 39.9681 88.9233 39.3201C88.9233 38.9691 89.0321 38.7531 89.1319 38.5011C88.9052 38.5191 88.6694 38.5461 88.4608 38.5461C86.2479 38.5461 84.9964 36.8901 84.9964 35.2611C84.9964 34.2981 85.4317 33.2361 86.3386 32.4621C87.5266 31.4811 88.9505 31.3101 90.0751 31.3101H94.3829L93.0407 32.0661H91.7438ZM90.2746 41.3271C90.1023 41.3001 90.0025 41.3001 89.7939 41.3001C89.6035 41.3001 88.4608 41.3451 87.5811 41.6421C87.1185 41.8131 85.7672 42.3261 85.7672 43.8381C85.7672 45.3501 87.2183 46.4391 89.4765 46.4391C91.4989 46.4391 92.5691 45.4581 92.5691 44.1441C92.5691 43.0461 91.8708 42.4701 90.2746 41.3271ZM90.8641 37.2951C91.3447 36.8181 91.3901 36.1521 91.3901 35.7741C91.3901 34.2711 90.5013 31.9401 88.7691 31.9401C88.234 31.9401 87.6445 32.2101 87.309 32.6331C86.9553 33.0651 86.8555 33.6321 86.8555 34.1721C86.8555 35.5671 87.6717 37.8801 89.4584 37.8801C89.9753 37.8801 90.5376 37.6281 90.8641 37.2951Z" fill="black"/>
<path d="M78.7202 41.1201C75.3918 41.1201 73.6143 38.5101 73.6143 36.1521C73.6143 33.3981 75.8543 31.0401 79.0376 31.0401C82.112 31.0401 84.0438 33.4611 84.0438 36.0081C84.0438 38.4921 82.1392 41.1201 78.7202 41.1201ZM81.323 39.4191C81.8309 38.7441 81.9579 37.8981 81.9579 37.0791C81.9579 35.2161 81.0781 31.6701 78.4662 31.6701C77.777 31.6701 77.0787 31.9401 76.5708 32.3901C75.7546 33.1281 75.6004 34.0551 75.6004 34.9641C75.6004 37.0521 76.6252 40.4901 79.1736 40.4901C80.008 40.4901 80.8424 40.0941 81.323 39.4191Z" fill="black"/>
<path d="M67.5649 41.12C64.2365 41.12 62.459 38.51 62.459 36.152C62.459 33.398 64.6991 31.04 67.8823 31.04C70.9567 31.04 72.8885 33.461 72.8885 36.008C72.8885 38.492 70.984 41.12 67.5649 41.12ZM70.1677 39.419C70.6756 38.744 70.8026 37.898 70.8026 37.079C70.8026 35.216 69.9138 31.67 67.311 31.67C66.6126 31.67 65.9234 31.94 65.4155 32.39C64.5902 33.128 64.4451 34.055 64.4451 34.964C64.4451 37.052 65.479 40.49 68.0184 40.49C68.8527 40.49 69.6871 40.094 70.1677 39.419Z" fill="black"/>
<path d="M61.0807 40.4991L58.2602 41.1471C57.1175 41.3271 56.0926 41.4891 55.0043 41.4891C49.5629 41.4801 47.4951 37.4841 47.4951 34.3521C47.4951 30.5361 50.4335 26.9901 55.4578 26.9901C56.5189 26.9901 57.5437 27.1431 58.4778 27.4041C59.9561 27.8181 60.6453 28.3311 61.0807 28.6281L59.4391 30.1851L58.7499 30.3381L59.2396 29.5551C58.5685 28.9071 57.3442 27.7011 55.0225 27.7011C51.9118 27.7011 49.5629 30.0591 49.5629 33.5061C49.5629 37.2051 52.2383 40.6881 56.537 40.6881C57.7976 40.6881 58.4506 40.4361 59.0401 40.2021V37.0251L56.0654 37.1871L57.6435 36.3411H61.8243L61.3165 36.8361C61.1804 36.9531 61.1623 36.9891 61.1169 37.1511C61.0988 37.3311 61.0807 37.8981 61.0807 38.1051V40.4991Z" fill="black"/>
<path d="M113.854 39.491V44.81H112.793V31.283H113.854V32.822C114.543 31.823 115.813 31.04 117.273 31.04C119.903 31.04 121.681 33.029 121.681 36.17C121.681 39.293 119.912 41.318 117.273 41.318C115.895 41.318 114.652 40.607 113.854 39.491ZM120.592 36.251C120.592 33.857 119.35 32.03 117.137 32.03C115.768 32.03 114.453 33.11 113.881 34.055V38.429C114.453 39.374 115.768 40.49 117.137 40.49C119.35 40.49 120.592 38.645 120.592 36.251Z" fill="black"/>
<path d="M123.132 27.53H124.22V41.12H123.132V27.53Z" fill="black"/>
<path d="M136.055 43.8742C136.281 43.9732 136.671 44.0362 136.916 44.0362C137.569 44.0362 138.014 43.7752 138.422 42.8392L139.193 41.0932L135.012 31.2202H136.2L139.782 39.7792L143.337 31.2202H144.534L139.437 43.1632C138.911 44.3962 138.077 44.9902 136.934 44.9902C136.59 44.9902 136.136 44.9272 135.873 44.8462L136.055 43.8742Z" fill="black"/>
<path d="M133.053 41.111C132.98 40.769 132.926 40.472 132.889 40.22C132.853 39.968 132.835 39.716 132.835 39.455C132.472 39.986 131.955 40.436 131.284 40.787C130.622 41.138 129.987 41.309 129.126 41.309C128.083 41.309 127.276 41.057 126.704 40.535C126.133 40.022 125.843 39.32 125.843 38.438C125.843 37.556 126.26 36.836 127.094 36.287C127.929 35.738 129.008 35.459 130.341 35.459H132.826V34.235C132.826 33.533 132.581 32.975 132.1 32.579C131.62 32.174 130.94 31.976 130.06 31.976C129.253 31.976 128.6 32.165 128.101 32.525C127.611 32.894 127.357 33.353 127.357 33.902H126.269L126.251 33.848C126.215 33.101 126.55 32.453 127.285 31.886C128.01 31.319 128.953 31.04 130.123 31.04C131.284 31.04 132.227 31.319 132.935 31.877C133.642 32.426 133.996 33.227 133.996 34.262V39.122C133.996 39.473 134.014 39.806 134.059 40.139C134.105 40.472 134.177 40.796 134.268 41.111H133.053ZM129.262 40.4C130.169 40.4 130.822 40.193 131.484 39.797C132.146 39.401 132.59 38.879 132.826 38.249V36.35H130.323C129.371 36.35 128.582 36.557 127.956 36.989C127.33 37.412 127.022 37.925 127.022 38.528C127.022 39.095 127.221 39.545 127.62 39.887C128.028 40.229 128.573 40.4 129.262 40.4Z" fill="black"/>
<path d="M47.1318 18.3772C47.1318 16.4422 48.6917 15.1912 50.6325 15.1912C51.9294 15.1912 52.7819 15.7672 53.317 16.4692L52.3647 16.9732C52.002 16.5142 51.3762 16.1542 50.6325 16.1542C49.3175 16.1542 48.329 17.0812 48.329 18.3772C48.338 19.6642 49.3175 20.6002 50.6325 20.6002C51.3127 20.6002 51.9113 20.3122 52.2105 20.0422V19.0972H50.2153V18.1432H53.3714V20.4382C52.7184 21.1132 51.7843 21.5632 50.6325 21.5632C48.6917 21.5722 47.1318 20.3122 47.1318 18.3772Z" fill="black"/>
<path d="M54.8857 21.4828V15.2908H59.5201V16.2448H56.0738V17.8378H59.4475V18.8008H56.0738V20.5288H59.5201V21.4828H54.8857Z" fill="black"/>
<path d="M62.6676 21.4828V16.2448H60.6543V15.2908H65.8509V16.2448H63.8376V21.4828H62.6676Z" fill="black"/>
<path d="M70.0137 15.2908H71.1473V21.4828H70.0137V15.2908Z" fill="black"/>
<path d="M74.3932 21.4828V16.2448H72.3799V15.2908H77.5765V16.2448H75.5632V21.4828H74.3932Z" fill="black"/>
<path d="M81.458 18.3862C81.458 16.5502 82.8819 15.2002 84.9133 15.2002C86.9267 15.2002 88.3596 16.5502 88.3596 18.3862C88.3596 20.2222 86.9176 21.5722 84.9133 21.5722C82.8819 21.5722 81.458 20.2222 81.458 18.3862ZM87.1262 18.3322C87.1262 17.0722 86.2556 16.1272 84.9043 16.1272C83.5439 16.1272 82.6823 17.0722 82.6823 18.3322C82.6823 19.5832 83.5439 20.5372 84.9043 20.5372C86.2556 20.5372 87.1262 19.5922 87.1262 18.3322Z" fill="black"/>
<path d="M94.3182 21.4828L90.8447 17.0548V21.4828H89.6748V15.2908H90.8719L94.2729 19.5838V15.2908H95.4428V21.4828H94.3182Z" fill="black"/>
<defs>
<linearGradient id="paint0_linear_243_8547" x1="26.5052" y1="31.3649" x2="34.1264" y2="42.6348" gradientUnits="userSpaceOnUse">
<stop stop-color="#FF177B"/>
<stop offset="1" stop-color="#FFEC73"/>
</linearGradient>
<linearGradient id="paint1_linear_243_8547" x1="29.7851" y1="15.6611" x2="16.1242" y2="44.8938" gradientUnits="userSpaceOnUse">
<stop stop-color="#064AA2"/>
<stop offset="1" stop-color="#63FFD4"/>
</linearGradient>
<linearGradient id="paint2_linear_243_8547" x1="33.9723" y1="28.7497" x2="17.016" y2="38.9712" gradientUnits="userSpaceOnUse">
<stop stop-color="#FF4521"/>
<stop offset="1" stop-color="#8A33DB"/>
</linearGradient>
<linearGradient id="paint3_linear_243_8547" x1="24.2088" y1="20.4328" x2="30.2233" y2="36.1865" gradientUnits="userSpaceOnUse">
<stop stop-color="#00A3B5"/>
<stop offset="1" stop-color="#D6FFA1"/>
</linearGradient>
</defs>
</svg>
