<svg width="127" height="23" viewBox="0 0 127 23" fill="none" xmlns="http://www.w3.org/2000/svg">
<path d="M0 22.54V0.46H2.72569L14.0979 17.71V0.46H16.8235V22.54H14.0979L2.72569 5.27467V22.54H0Z" fill="url(#paint0_linear_293_685)"/>
<path d="M29.3771 8.234V5.98H33.7684V8.234H29.3771ZM22.7748 22.54V5.07533C22.7748 4.646 22.795 4.21155 22.8354 3.772C22.8758 3.32222 22.9666 2.88778 23.108 2.46867C23.2493 2.03933 23.4815 1.64578 23.8045 1.288C24.1781 0.868889 24.5869 0.572444 25.0311 0.398665C25.4753 0.214666 25.9245 0.102222 26.3788 0.0613325C26.8432 0.0204442 27.2823 0 27.6962 0H29.7708V2.26933H27.8476C27.0501 2.26933 26.4545 2.46867 26.0608 2.86733C25.6671 3.25578 25.4702 3.84867 25.4702 4.646V22.54H22.7748ZM20.0037 8.234V5.98H29.7708V8.234H20.0037ZM33.5413 22.54V0H36.2367V22.54H33.5413Z" fill="url(#paint1_linear_293_685)"/>
<path d="M47.1304 22.9693C46.0805 22.9693 45.177 22.8007 44.4199 22.4633C43.6728 22.126 43.052 21.6762 42.5573 21.114C42.0627 20.5518 41.674 19.9282 41.3913 19.2433C41.1087 18.5584 40.9068 17.8582 40.7856 17.1427C40.6746 16.4271 40.6191 15.7576 40.6191 15.134V5.98H43.3447V14.2753C43.3447 15.0522 43.4154 15.8036 43.5567 16.5293C43.6981 17.2551 43.9353 17.9093 44.2685 18.492C44.6117 19.0747 45.066 19.5347 45.6313 19.872C46.2067 20.2093 46.9235 20.378 47.7816 20.378C48.4579 20.378 49.0737 20.2604 49.629 20.0253C50.1842 19.7902 50.6587 19.4427 51.0524 18.9827C51.4461 18.5124 51.7489 17.9196 51.9609 17.204C52.1729 16.4884 52.2789 15.6553 52.2789 14.7047L54.0506 15.2567C54.0506 16.8513 53.7629 18.2262 53.1875 19.3813C52.6222 20.5364 51.8196 21.4258 50.7798 22.0493C49.7501 22.6627 48.5336 22.9693 47.1304 22.9693ZM52.5818 22.54V18.1087H52.2789V5.98H54.9895V22.54H52.5818Z" fill="url(#paint2_linear_293_685)"/>
<path d="M66.4733 23C64.8682 23 63.465 22.6422 62.2636 21.9267C61.0724 21.2009 60.1436 20.194 59.4774 18.906C58.8111 17.6078 58.478 16.0949 58.478 14.3673C58.478 12.558 58.806 10.994 59.4622 9.67533C60.1184 8.34644 61.032 7.32422 62.2031 6.60867C63.3842 5.88289 64.7672 5.52 66.3522 5.52C67.9977 5.52 69.3958 5.90333 70.5467 6.67C71.7076 7.43667 72.5758 8.53044 73.1512 9.95133C73.7368 11.3722 73.9891 13.064 73.9084 15.0267H71.1827V14.0453C71.1524 12.0111 70.7435 10.4931 69.9561 9.49133C69.1687 8.47933 67.9977 7.97333 66.443 7.97333C64.7773 7.97333 63.5104 8.51511 62.6422 9.59867C61.774 10.6822 61.3399 12.236 61.3399 14.26C61.3399 16.2124 61.774 17.7253 62.6422 18.7987C63.5104 19.872 64.747 20.4087 66.3522 20.4087C67.4323 20.4087 68.3712 20.1582 69.1687 19.6573C69.9662 19.1564 70.5921 18.4358 71.0464 17.4953L73.6358 18.4C72.9998 19.8618 72.0408 20.9964 70.7587 21.804C69.4867 22.6013 68.0582 23 66.4733 23ZM60.4314 15.0267V12.834H72.5152V15.0267H60.4314Z" fill="url(#paint3_linear_293_685)"/>
<path d="M88.6382 22.54V14.2447C88.6382 13.4576 88.5675 12.7011 88.4262 11.9753C88.2949 11.2496 88.0577 10.6004 87.7145 10.028C87.3813 9.44533 86.927 8.98533 86.3516 8.648C85.7863 8.31067 85.0695 8.142 84.2013 8.142C83.525 8.142 82.9092 8.25956 82.3539 8.49467C81.8088 8.71956 81.3394 9.06711 80.9457 9.53733C80.552 10.0076 80.2441 10.6004 80.022 11.316C79.81 12.0213 79.704 12.8544 79.704 13.8153L77.9323 13.2633C77.9323 11.6584 78.2149 10.2836 78.7803 9.13867C79.3557 7.98356 80.1582 7.09933 81.188 6.486C82.2278 5.86244 83.4493 5.55067 84.8525 5.55067C85.9125 5.55067 86.816 5.71933 87.563 6.05667C88.3101 6.394 88.9309 6.84378 89.4256 7.406C89.9202 7.958 90.3089 8.58156 90.5916 9.27667C90.8742 9.96155 91.0711 10.6618 91.1821 11.3773C91.3033 12.0827 91.3639 12.7522 91.3639 13.386V22.54H88.6382ZM76.9783 22.54V5.98H79.4011V10.4113H79.704V22.54H76.9783Z" fill="url(#paint4_linear_293_685)"/>
<path d="M102.2 23C100.544 23 99.1362 22.6269 97.9753 21.8807C96.8244 21.1242 95.9462 20.0867 95.3404 18.768C94.7347 17.4493 94.4218 15.9467 94.4016 14.26C94.4218 12.5324 94.7398 11.0144 95.3556 9.706C95.9815 8.38733 96.8749 7.36 98.0358 6.624C99.1968 5.888 100.595 5.52 102.23 5.52C103.957 5.52 105.441 5.94933 106.682 6.808C107.934 7.66667 108.772 8.84222 109.196 10.3347L106.531 11.1473C106.188 10.1864 105.627 9.44022 104.85 8.90867C104.083 8.37711 103.2 8.11133 102.2 8.11133C101.08 8.11133 100.156 8.37711 99.429 8.90867C98.7021 9.43 98.162 10.1558 97.8087 11.086C97.4554 12.006 97.2737 13.064 97.2636 14.26C97.2838 16.1 97.7027 17.5873 98.5204 18.722C99.3482 19.8464 100.575 20.4087 102.2 20.4087C103.27 20.4087 104.159 20.1633 104.865 19.6727C105.572 19.1718 106.107 18.4511 106.47 17.5107L109.196 18.2313C108.631 19.7749 107.747 20.9556 106.546 21.7733C105.345 22.5911 103.896 23 102.2 23Z" fill="url(#paint5_linear_293_685)"/>
<path d="M119.087 23C117.482 23 116.079 22.6422 114.877 21.9267C113.686 21.2009 112.757 20.194 112.091 18.906C111.425 17.6078 111.092 16.0949 111.092 14.3673C111.092 12.558 111.42 10.994 112.076 9.67533C112.732 8.34644 113.646 7.32422 114.817 6.60867C115.998 5.88289 117.381 5.52 118.966 5.52C120.611 5.52 122.01 5.90333 123.16 6.67C124.321 7.43667 125.19 8.53044 125.765 9.95133C126.35 11.3722 126.603 13.064 126.522 15.0267H123.796V14.0453C123.766 12.0111 123.357 10.4931 122.57 9.49133C121.782 8.47933 120.611 7.97333 119.057 7.97333C117.391 7.97333 116.124 8.51511 115.256 9.59867C114.388 10.6822 113.954 12.236 113.954 14.26C113.954 16.2124 114.388 17.7253 115.256 18.7987C116.124 19.872 117.361 20.4087 118.966 20.4087C120.046 20.4087 120.985 20.1582 121.782 19.6573C122.58 19.1564 123.206 18.4358 123.66 17.4953L126.25 18.4C125.614 19.8618 124.654 20.9964 123.372 21.804C122.1 22.6013 120.672 23 119.087 23ZM113.045 15.0267V12.834H125.129V15.0267H113.045Z" fill="url(#paint6_linear_293_685)"/>
<defs>
<linearGradient id="paint0_linear_293_685" x1="-32.2247" y1="19.895" x2="118.718" y2="-64.9002" gradientUnits="userSpaceOnUse">
<stop stop-color="#F63747"/>
<stop stop-color="#EB2868"/>
<stop offset="1" stop-color="#FA591B"/>
</linearGradient>
<linearGradient id="paint1_linear_293_685" x1="-32.2247" y1="19.895" x2="118.718" y2="-64.9002" gradientUnits="userSpaceOnUse">
<stop stop-color="#F63747"/>
<stop stop-color="#EB2868"/>
<stop offset="1" stop-color="#FA591B"/>
</linearGradient>
<linearGradient id="paint2_linear_293_685" x1="-32.2247" y1="19.895" x2="118.718" y2="-64.9002" gradientUnits="userSpaceOnUse">
<stop stop-color="#F63747"/>
<stop stop-color="#EB2868"/>
<stop offset="1" stop-color="#FA591B"/>
</linearGradient>
<linearGradient id="paint3_linear_293_685" x1="-32.2247" y1="19.895" x2="118.718" y2="-64.9002" gradientUnits="userSpaceOnUse">
<stop stop-color="#F63747"/>
<stop stop-color="#EB2868"/>
<stop offset="1" stop-color="#FA591B"/>
</linearGradient>
<linearGradient id="paint4_linear_293_685" x1="-32.2247" y1="19.895" x2="118.718" y2="-64.9002" gradientUnits="userSpaceOnUse">
<stop stop-color="#F63747"/>
<stop stop-color="#EB2868"/>
<stop offset="1" stop-color="#FA591B"/>
</linearGradient>
<linearGradient id="paint5_linear_293_685" x1="-32.2247" y1="19.895" x2="118.718" y2="-64.9002" gradientUnits="userSpaceOnUse">
<stop stop-color="#F63747"/>
<stop stop-color="#EB2868"/>
<stop offset="1" stop-color="#FA591B"/>
</linearGradient>
<linearGradient id="paint6_linear_293_685" x1="-32.2247" y1="19.895" x2="118.718" y2="-64.9002" gradientUnits="userSpaceOnUse">
<stop stop-color="#F63747"/>
<stop stop-color="#EB2868"/>
<stop offset="1" stop-color="#FA591B"/>
</linearGradient>
</defs>
</svg>
