<svg width="30" height="30" viewBox="0 0 30 30" fill="none" xmlns="http://www.w3.org/2000/svg">
<path fill-rule="evenodd" clip-rule="evenodd" d="M0 7.5C0 3.96447 0 2.1967 1.09835 1.09835C2.1967 0 3.96447 0 7.5 0H22.5C26.0355 0 27.8033 0 28.9017 1.09835C30 2.1967 30 3.96447 30 7.5V22.5C30 26.0355 30 27.8033 28.9017 28.9017C27.8033 30 26.0355 30 22.5 30H7.5C3.96447 30 2.1967 30 1.09835 28.9017C0 27.8033 0 26.0355 0 22.5V7.5ZM7.5 1.875H22.5C24.3208 1.875 25.4977 1.87898 26.3649 1.99557C27.1782 2.10491 27.4331 2.28144 27.5758 2.42417C27.7186 2.56691 27.8951 2.82181 28.0044 3.63507C28.121 4.50227 28.125 5.67923 28.125 7.5V22.5C28.125 24.3208 28.121 25.4977 28.0044 26.3649C27.8951 27.1782 27.7186 27.4331 27.5758 27.5758C27.4331 27.7186 27.1782 27.8951 26.3649 28.0044C25.4977 28.121 24.3208 28.125 22.5 28.125H7.5C5.67923 28.125 4.50227 28.121 3.63507 28.0044C2.82181 27.8951 2.56691 27.7186 2.42417 27.5758C2.28144 27.4331 2.10491 27.1782 1.99557 26.3649C1.87898 25.4977 1.875 24.3208 1.875 22.5V7.5C1.875 5.67923 1.87898 4.50227 1.99557 3.63507C2.10491 2.82181 2.28144 2.56691 2.42417 2.42417C2.56691 2.28144 2.82181 2.10491 3.63507 1.99557C4.50227 1.87898 5.67923 1.875 7.5 1.875Z" fill="url(#paint0_linear_293_800)"/>
<path fill-rule="evenodd" clip-rule="evenodd" d="M15.029 8.10261V8.0769L6.37512 21.9231C6.37512 21.9231 8.5521 19.1564 9.34988 18.3366C10.1477 17.5169 10.5127 17.2351 10.9725 16.9149C11.4322 16.5947 12.7303 15.7749 13.4064 15.7749C14.0825 15.7749 14.398 16.2616 14.4881 16.4666C14.5782 16.6715 14.6412 17.0045 14.6909 17.4656C14.8078 18.549 14.8549 19.3013 14.9073 20.1399C14.9398 20.6595 14.9744 21.2123 15.029 21.8974V21.9231L23.6828 8.07699C23.6828 8.07699 21.5058 10.8437 20.7081 11.6634C19.9103 12.4832 19.5452 12.765 19.0855 13.0852C18.6257 13.4054 17.3276 14.2251 16.6516 14.2251C15.9755 14.2251 15.66 13.7384 15.5698 13.5335C15.4797 13.3285 15.4168 12.9955 15.367 12.5344C15.2501 11.451 15.2031 10.6987 15.1506 9.8602C15.1181 9.34054 15.0835 8.78778 15.029 8.10261Z" fill="url(#paint1_linear_293_800)"/>
<defs>
<linearGradient id="paint0_linear_293_800" x1="-7.64" y1="25.95" x2="38.9542" y2="21.1923" gradientUnits="userSpaceOnUse">
<stop stop-color="#F63747"/>
<stop stop-color="#EB2868"/>
<stop offset="1" stop-color="#FA591B"/>
</linearGradient>
<linearGradient id="paint1_linear_293_800" x1="1.96743" y1="20.0538" x2="28.6936" y2="16.6426" gradientUnits="userSpaceOnUse">
<stop stop-color="#F63747"/>
<stop stop-color="#EB2868"/>
<stop offset="1" stop-color="#FA591B"/>
</linearGradient>
</defs>
</svg>
