<svg width="173" height="30" viewBox="0 0 173 30" fill="none" xmlns="http://www.w3.org/2000/svg">
<path fill-rule="evenodd" clip-rule="evenodd" d="M0 7.5C0 3.96447 0 2.1967 1.09835 1.09835C2.1967 0 3.96447 0 7.5 0H22.5C26.0355 0 27.8033 0 28.9017 1.09835C30 2.1967 30 3.96447 30 7.5V22.5C30 26.0355 30 27.8033 28.9017 28.9017C27.8033 30 26.0355 30 22.5 30H7.5C3.96447 30 2.1967 30 1.09835 28.9017C0 27.8033 0 26.0355 0 22.5V7.5ZM7.5 1.875H22.5C24.3208 1.875 25.4977 1.87898 26.3649 1.99557C27.1782 2.10491 27.4331 2.28144 27.5758 2.42417C27.7186 2.56691 27.8951 2.82181 28.0044 3.63507C28.121 4.50227 28.125 5.67923 28.125 7.5V22.5C28.125 24.3208 28.121 25.4977 28.0044 26.3649C27.8951 27.1782 27.7186 27.4331 27.5758 27.5758C27.4331 27.7186 27.1782 27.8951 26.3649 28.0044C25.4977 28.121 24.3208 28.125 22.5 28.125H7.5C5.67923 28.125 4.50227 28.121 3.63507 28.0044C2.82181 27.8951 2.56691 27.7186 2.42417 27.5758C2.28144 27.4331 2.10491 27.1782 1.99557 26.3649C1.87898 25.4977 1.875 24.3208 1.875 22.5V7.5C1.875 5.67923 1.87898 4.50227 1.99557 3.63507C2.10491 2.82181 2.28144 2.56691 2.42417 2.42417C2.56691 2.28144 2.82181 2.10491 3.63507 1.99557C4.50227 1.87898 5.67923 1.875 7.5 1.875Z" fill="white"/>
<path fill-rule="evenodd" clip-rule="evenodd" d="M15.0289 8.10261V8.0769L6.37508 21.9231C6.37508 21.9231 8.55206 19.1564 9.34984 18.3366C10.1476 17.5169 10.5127 17.2351 10.9724 16.9149C11.4322 16.5947 12.7302 15.7749 13.4063 15.7749C14.0824 15.7749 14.3979 16.2616 14.4881 16.4666C14.5782 16.6715 14.6411 17.0045 14.6909 17.4656C14.8078 18.549 14.8548 19.3013 14.9073 20.1399C14.9398 20.6595 14.9744 21.2123 15.0289 21.8974V21.9231L23.6828 8.07699C23.6828 8.07699 21.5058 10.8437 20.708 11.6634C19.9102 12.4832 19.5451 12.765 19.0854 13.0852C18.6257 13.4054 17.3276 14.2251 16.6515 14.2251C15.9754 14.2251 15.6599 13.7384 15.5698 13.5335C15.4796 13.3285 15.4167 12.9955 15.367 12.5344C15.2501 11.451 15.203 10.6987 15.1506 9.8602C15.1181 9.34054 15.0835 8.78778 15.0289 8.10261Z" fill="white"/>
<path d="M46 25.54V3.46H48.7257L60.0979 20.71V3.46H62.8235V25.54H60.0979L48.7257 8.27467V25.54H46Z" fill="white"/>
<path d="M75.3771 11.234V8.98H79.7684V11.234H75.3771ZM68.7748 25.54V8.07533C68.7748 7.646 68.795 7.21155 68.8354 6.772C68.8758 6.32222 68.9666 5.88778 69.108 5.46867C69.2493 5.03933 69.4815 4.64578 69.8045 4.288C70.1781 3.86889 70.5869 3.57244 71.0311 3.39867C71.4753 3.21467 71.9245 3.10222 72.3788 3.06133C72.8432 3.02044 73.2823 3 73.6962 3H75.7708V5.26933H73.8476C73.0501 5.26933 72.4545 5.46867 72.0608 5.86733C71.6671 6.25578 71.4702 6.84867 71.4702 7.646V25.54H68.7748ZM66.0037 11.234V8.98H75.7708V11.234H66.0037ZM79.5413 25.54V3H82.2367V25.54H79.5413Z" fill="white"/>
<path d="M93.1304 25.9693C92.0805 25.9693 91.177 25.8007 90.4199 25.4633C89.6728 25.126 89.052 24.6762 88.5573 24.114C88.0627 23.5518 87.674 22.9282 87.3913 22.2433C87.1087 21.5584 86.9068 20.8582 86.7856 20.1427C86.6746 19.4271 86.6191 18.7576 86.6191 18.134V8.98H89.3447V17.2753C89.3447 18.0522 89.4154 18.8036 89.5567 19.5293C89.6981 20.2551 89.9353 20.9093 90.2685 21.492C90.6117 22.0747 91.066 22.5347 91.6313 22.872C92.2067 23.2093 92.9235 23.378 93.7816 23.378C94.4579 23.378 95.0737 23.2604 95.629 23.0253C96.1842 22.7902 96.6587 22.4427 97.0524 21.9827C97.4461 21.5124 97.7489 20.9196 97.9609 20.204C98.1729 19.4884 98.2789 18.6553 98.2789 17.7047L100.051 18.2567C100.051 19.8513 99.7629 21.2262 99.1875 22.3813C98.6222 23.5364 97.8196 24.4258 96.7798 25.0493C95.7501 25.6627 94.5336 25.9693 93.1304 25.9693ZM98.5818 25.54V21.1087H98.2789V8.98H100.989V25.54H98.5818Z" fill="white"/>
<path d="M112.473 26C110.868 26 109.465 25.6422 108.264 24.9267C107.072 24.2009 106.144 23.194 105.477 21.906C104.811 20.6078 104.478 19.0949 104.478 17.3673C104.478 15.558 104.806 13.994 105.462 12.6753C106.118 11.3464 107.032 10.3242 108.203 9.60867C109.384 8.88289 110.767 8.52 112.352 8.52C113.998 8.52 115.396 8.90333 116.547 9.67C117.708 10.4367 118.576 11.5304 119.151 12.9513C119.737 14.3722 119.989 16.064 119.908 18.0267H117.183V17.0453C117.152 15.0111 116.744 13.4931 115.956 12.4913C115.169 11.4793 113.998 10.9733 112.443 10.9733C110.777 10.9733 109.51 11.5151 108.642 12.5987C107.774 13.6822 107.34 15.236 107.34 17.26C107.34 19.2124 107.774 20.7253 108.642 21.7987C109.51 22.872 110.747 23.4087 112.352 23.4087C113.432 23.4087 114.371 23.1582 115.169 22.6573C115.966 22.1564 116.592 21.4358 117.046 20.4953L119.636 21.4C119 22.8618 118.041 23.9964 116.759 24.804C115.487 25.6013 114.058 26 112.473 26ZM106.431 18.0267V15.834H118.515V18.0267H106.431Z" fill="white"/>
<path d="M134.638 25.54V17.2447C134.638 16.4576 134.567 15.7011 134.426 14.9753C134.295 14.2496 134.058 13.6004 133.714 13.028C133.381 12.4453 132.927 11.9853 132.352 11.648C131.786 11.3107 131.07 11.142 130.201 11.142C129.525 11.142 128.909 11.2596 128.354 11.4947C127.809 11.7196 127.339 12.0671 126.946 12.5373C126.552 13.0076 126.244 13.6004 126.022 14.316C125.81 15.0213 125.704 15.8544 125.704 16.8153L123.932 16.2633C123.932 14.6584 124.215 13.2836 124.78 12.1387C125.356 10.9836 126.158 10.0993 127.188 9.486C128.228 8.86244 129.449 8.55067 130.852 8.55067C131.912 8.55067 132.816 8.71933 133.563 9.05667C134.31 9.394 134.931 9.84378 135.426 10.406C135.92 10.958 136.309 11.5816 136.592 12.2767C136.874 12.9616 137.071 13.6618 137.182 14.3773C137.303 15.0827 137.364 15.7522 137.364 16.386V25.54H134.638ZM122.978 25.54V8.98H125.401V13.4113H125.704V25.54H122.978Z" fill="white"/>
<path d="M148.2 26C146.544 26 145.136 25.6269 143.975 24.8807C142.824 24.1242 141.946 23.0867 141.34 21.768C140.735 20.4493 140.422 18.9467 140.402 17.26C140.422 15.5324 140.74 14.0144 141.356 12.706C141.981 11.3873 142.875 10.36 144.036 9.624C145.197 8.888 146.595 8.52 148.23 8.52C149.957 8.52 151.441 8.94933 152.682 9.808C153.934 10.6667 154.772 11.8422 155.196 13.3347L152.531 14.1473C152.188 13.1864 151.627 12.4402 150.85 11.9087C150.083 11.3771 149.2 11.1113 148.2 11.1113C147.08 11.1113 146.156 11.3771 145.429 11.9087C144.702 12.43 144.162 13.1558 143.809 14.086C143.455 15.006 143.274 16.064 143.264 17.26C143.284 19.1 143.703 20.5873 144.52 21.722C145.348 22.8464 146.575 23.4087 148.2 23.4087C149.27 23.4087 150.159 23.1633 150.865 22.6727C151.572 22.1718 152.107 21.4511 152.47 20.5107L155.196 21.2313C154.631 22.7749 153.747 23.9556 152.546 24.7733C151.345 25.5911 149.896 26 148.2 26Z" fill="white"/>
<path d="M165.087 26C163.482 26 162.079 25.6422 160.877 24.9267C159.686 24.2009 158.757 23.194 158.091 21.906C157.425 20.6078 157.092 19.0949 157.092 17.3673C157.092 15.558 157.42 13.994 158.076 12.6753C158.732 11.3464 159.646 10.3242 160.817 9.60867C161.998 8.88289 163.381 8.52 164.966 8.52C166.611 8.52 168.01 8.90333 169.16 9.67C170.321 10.4367 171.19 11.5304 171.765 12.9513C172.35 14.3722 172.603 16.064 172.522 18.0267H169.796V17.0453C169.766 15.0111 169.357 13.4931 168.57 12.4913C167.782 11.4793 166.611 10.9733 165.057 10.9733C163.391 10.9733 162.124 11.5151 161.256 12.5987C160.388 13.6822 159.954 15.236 159.954 17.26C159.954 19.2124 160.388 20.7253 161.256 21.7987C162.124 22.872 163.361 23.4087 164.966 23.4087C166.046 23.4087 166.985 23.1582 167.782 22.6573C168.58 22.1564 169.206 21.4358 169.66 20.4953L172.25 21.4C171.614 22.8618 170.654 23.9964 169.372 24.804C168.1 25.6013 166.672 26 165.087 26ZM159.045 18.0267V15.834H171.129V18.0267H159.045Z" fill="white"/>
</svg>
